<?xml version="1.0" standalone="no"?>
<!DOCTYPE svg PUBLIC "-//W3C//DTD SVG 20010904//EN"
 "http://www.w3.org/TR/2001/REC-SVG-20010904/DTD/svg10.dtd">
<svg version="1.0" xmlns="http://www.w3.org/2000/svg"
 width="1047.000000pt" height="1047.000000pt" viewBox="0 0 1047.000000 1047.000000"
 preserveAspectRatio="xMidYMid meet">
<metadata>
Created by potrace 1.11, written by Peter Selinger 2001-2013
</metadata>
<g transform="translate(0.000000,1047.000000) scale(0.100000,-0.100000)"
fill="#000000" stroke="none">
<path d="M455 10458 c-185 -20 -346 -150 -426 -343 -4 -11 -12 -41 -17 -67 -6
-29 -9 -1904 -9 -4814 0 -5244 -6 -4824 62 -4953 69 -131 192 -227 335 -262
79 -19 9589 -20 9665 -1 180 46 332 197 379 377 14 54 16 521 13 4865 l-2
4805 -22 54 c-74 181 -234 314 -407 338 -58 8 -9498 9 -9571 1z m9600 -54
c126 -32 239 -119 303 -234 66 -117 61 308 61 -4925 1 -4212 -1 -4767 -14
-4824 -42 -178 -184 -320 -362 -361 -40 -9 -1131 -12 -4798 -12 -2609 0 -4768
3 -4797 7 -29 4 -84 22 -123 40 -123 57 -210 154 -256 285 l-22 65 -1 4760
c-1 2618 2 4785 7 4815 4 30 23 88 42 129 59 125 197 235 325 260 25 5 2117 9
4810 10 4276 1 4772 -1 4825 -15z"/>
<path d="M2610 6851 c-8 -6 -16 -22 -17 -36 -3 -42 28 -53 162 -59 191 -8 205
-14 223 -99 6 -30 9 -585 8 -1540 -1 -1210 -4 -1498 -15 -1525 -20 -49 -59
-62 -235 -77 -89 -8 -120 -15 -135 -30 -18 -17 -8 -43 21 -54 13 -5 196 -10
408 -11 1266 -5 1777 -11 2033 -25 l127 -8 1 39 c1 22 3 64 5 94 10 159 10
752 0 772 -13 25 -36 33 -71 24 -26 -7 -34 -23 -40 -87 -6 -77 -16 -154 -20
-169 -2 -8 -7 -30 -10 -49 -8 -48 -42 -146 -70 -200 -59 -117 -223 -213 -405
-237 -25 -3 -47 -8 -51 -9 -3 -2 -43 -7 -90 -10 -46 -4 -100 -9 -119 -11 -19
-3 -216 -6 -438 -8 l-403 -4 3 1567 c3 1459 4 1568 20 1597 10 19 31 37 50 44
32 11 58 14 223 24 60 4 83 10 92 23 18 23 16 30 -8 54 -22 22 -26 22 -213 14
-245 -10 -667 -11 -866 -2 -99 5 -160 4 -170 -2z"/>
<path d="M5389 6844 c0 -10 -2 -32 -3 -49 -2 -16 -6 -75 -10 -130 -4 -55 -9
-122 -11 -150 -2 -27 -7 -86 -10 -130 -3 -44 -8 -107 -11 -140 -21 -248 -11
-304 53 -305 36 0 56 48 68 159 27 250 130 455 275 545 101 64 207 81 545 91
l150 4 -1 -1542 c0 -848 -4 -1561 -8 -1583 -13 -71 -60 -100 -174 -109 -37 -3
-96 -8 -131 -10 -73 -6 -114 -22 -119 -48 -7 -35 39 -40 313 -32 333 10 714
10 880 1 144 -8 174 0 161 42 -9 27 -21 30 -146 37 -129 6 -187 20 -223 54
-60 55 -57 -18 -57 1655 -1 841 1 1531 4 1533 2 2 93 6 202 8 163 2 215 -1
289 -15 145 -30 224 -65 300 -132 91 -79 175 -269 190 -429 19 -200 43 -259
104 -259 51 0 60 25 47 135 -3 33 -9 85 -12 115 -2 30 -7 69 -9 85 -2 17 -7
77 -10 135 -4 58 -9 107 -10 110 -2 3 -7 61 -10 130 -4 69 -9 145 -11 170 -1
25 -3 51 -3 58 -1 11 -54 12 -293 5 -355 -10 -1272 -9 -1875 2 -431 8 -443 7
-444 -11z"/>
<path d="M1705 3896 c-68 -32 -119 -86 -139 -147 -41 -128 0 -249 108 -320 43
-28 61 -33 126 -37 94 -5 150 18 214 89 93 103 90 260 -7 359 -23 23 -61 51
-85 61 -63 27 -154 25 -217 -5z"/>
<path d="M8697 3906 c-59 -22 -102 -56 -138 -110 -32 -48 -34 -56 -34 -136 0
-96 18 -140 77 -197 100 -96 269 -98 366 -3 52 51 75 102 80 177 6 86 -17 149
-75 207 -73 71 -181 95 -276 62z"/>
</g>
</svg>
